<?xml version="1.0" encoding="utf-8"?>
<!-- Generator: Adobe Illustrator 18.1.1, SVG Export Plug-In . SVG Version: 6.00 Build 0)  -->
<svg version="1.1" id="Слой_1" xmlns="http://www.w3.org/2000/svg" xmlns:xlink="http://www.w3.org/1999/xlink" x="0px" y="0px"
	 viewBox="0 0 50 50" enable-background="new 0 0 50 50" xml:space="preserve">
<g>
	<path fill="#FDFBE3" d="M13.1,46.4c4.5,0,19.3,0,23.8,0c0-9.7-3.8-13.8-7.7-15.3c2.4-1.4,4-4,4-7c0-4.5-3.7-8.2-8.2-8.2
		s-8.2,3.7-8.2,8.2c0,3,1.6,5.5,3.9,7C16.8,32.5,13.1,36.5,13.1,46.4z"/>
	<path fill="#FDFBE3" d="M31.5,14.4V3.6l-8.1,8.5c0.6-0.1,1.3-0.2,2-0.2C27.7,11.9,29.9,12.9,31.5,14.4z"/>
</g>
</svg>
