<?xml version="1.0" encoding="utf-8"?>
<!-- Generator: Adobe Illustrator 18.1.1, SVG Export Plug-In . SVG Version: 6.00 Build 0)  -->
<svg version="1.1" id="Слой_1" xmlns="http://www.w3.org/2000/svg" xmlns:xlink="http://www.w3.org/1999/xlink" x="0px" y="0px"
	 viewBox="0 0 50 50" enable-background="new 0 0 50 50" xml:space="preserve">
<g>
	<path fill="#FDFBE6" d="M39.8,13.8h-5.5L32.9,11c0,0-0.5-1.8-3.1-1.8s-4.8,0-4.8,0s-2.3,0-4.8,0S17.1,11,17.1,11l-1.3,2.8h-5.5
		c-1.9,0-3.5,1.6-3.5,3.5v20.1c0,1.9,1.6,3.5,3.5,3.5h29.5c1.9,0,3.5-1.6,3.5-3.5V17.2C43.3,15.3,41.7,13.8,39.8,13.8z M24.9,36.5
		c-5.1,0-9.2-4.1-9.2-9.2s4.1-9.2,9.2-9.2s9.2,4.1,9.2,9.2S29.9,36.5,24.9,36.5z"/>
	<circle fill="#FDFBE6" cx="24.9" cy="27.4" r="6.1"/>
</g>
</svg>
