<?xml version="1.0" encoding="utf-8"?>
<!-- Generator: Adobe Illustrator 18.1.1, SVG Export Plug-In . SVG Version: 6.00 Build 0)  -->
<svg version="1.1" id="Capa_1" xmlns="http://www.w3.org/2000/svg" xmlns:xlink="http://www.w3.org/1999/xlink" x="0px" y="0px"
	 viewBox="0 0 50 50" enable-background="new 0 0 50 50" xml:space="preserve">
<g>
	<g id="Link_x5F_1">
		<g>
			<path fill="#FB5B40" d="M19.9,25.5c-0.2,0.8,0.3,1.7,1.1,1.9s1.7-0.3,1.9-1.1c0.2-0.6,0.3-1.2,0.6-1.9C26,18.4,33,15.6,39,18.3
				c5.9,2.5,8.8,9.5,6.1,15.5c-2.7,5.9-9.5,8.8-15.5,6.1c-1.7-0.8-3.1-1.9-4.4-3.3c-0.6-0.6-1.6-0.8-2.2-0.2
				c-0.6,0.6-0.8,1.6-0.2,2.2c1.6,1.7,3.3,3.1,5.5,4.1c7.5,3.3,16.3-0.3,19.5-7.8c3.3-7.5-0.3-16.2-7.8-19.5S24,15.6,20.7,23.1
				C20.4,23.9,20.2,24.7,19.9,25.5z M9.9,34.7c7.5,3.3,16.3-0.3,19.5-7.8c0.3-0.8,0.6-1.6,0.8-2.2c0.2-0.8-0.3-1.7-1.1-1.9
				c-0.8-0.2-1.7,0.3-1.9,1.1c-0.2,0.6-0.3,1.2-0.6,1.7c-2.5,5.9-9.5,8.7-15.5,6.1C5.2,29.2,2.4,22.2,5,16.2s9.5-8.8,15.5-6.1
				c1.7,0.8,3.1,1.9,4.4,3.3c0.6,0.6,1.6,0.8,2.2,0.2c0.6-0.6,0.8-1.6,0.2-2.2c-1.6-1.7-3.3-3.1-5.5-4.1C14.3,4.1,5.5,7.7,2.2,15.2
				C-1.2,22.7,2.4,31.4,9.9,34.7z"/>
		</g>
	</g>
</g>
</svg>
