<?xml version="1.0" encoding="utf-8"?>
<!-- Generator: Adobe Illustrator 18.1.1, SVG Export Plug-In . SVG Version: 6.00 Build 0)  -->
<svg version="1.1" id="Capa_1" xmlns="http://www.w3.org/2000/svg" xmlns:xlink="http://www.w3.org/1999/xlink" x="0px" y="0px"
	 viewBox="-8 10 32 32" enable-background="new -8 10 32 32" xml:space="preserve">
<g>
	<g id="Link_x5F_1">
		<g>
			<path fill="#2A2E25" d="M4.7,26.3c-0.1,0.5,0.2,1.1,0.7,1.2c0.5,0.1,1.1-0.2,1.2-0.7c0.1-0.4,0.2-0.8,0.4-1.2
				c1.6-3.8,6.1-5.6,9.9-3.9c3.8,1.6,5.6,6.1,3.9,9.9s-6.1,5.6-9.9,3.9c-1.1-0.5-2-1.2-2.8-2.1c-0.4-0.4-1-0.5-1.4-0.1
				c-0.4,0.4-0.5,1-0.1,1.4c1,1.1,2.1,2,3.5,2.6c4.8,2.1,10.4-0.2,12.5-5s-0.2-10.4-5-12.5S7.3,20,5.2,24.8
				C5,25.3,4.9,25.8,4.7,26.3z M-1.7,32.2c4.8,2.1,10.4-0.2,12.5-5c0.2-0.5,0.4-1,0.5-1.4c0.1-0.5-0.2-1.1-0.7-1.2
				c-0.5-0.1-1.1,0.2-1.2,0.7c-0.1,0.4-0.2,0.8-0.4,1.1c-1.6,3.8-6.1,5.6-9.9,3.9c-3.8-1.6-5.6-6.1-3.9-9.9s6.1-5.6,9.9-3.9
				c1.1,0.5,2,1.2,2.8,2.1c0.4,0.4,1,0.5,1.4,0.1c0.4-0.4,0.5-1,0.1-1.4c-1-1.1-2.1-2-3.5-2.6c-4.8-2.1-10.4,0.2-12.5,5
				C-8.8,24.5-6.5,30.1-1.7,32.2z"/>
		</g>
	</g>
</g>
</svg>
