<?xml version="1.0" encoding="utf-8"?>
<!-- Generator: Adobe Illustrator 18.1.1, SVG Export Plug-In . SVG Version: 6.00 Build 0)  -->
<svg version="1.1" id="Слой_1" xmlns="http://www.w3.org/2000/svg" xmlns:xlink="http://www.w3.org/1999/xlink" x="0px" y="0px"
	 viewBox="0 0 50 100" enable-background="new 0 0 50 100" xml:space="preserve">
<g>
	<path fill="#DC533B" d="M6.1,12.4L29.4,1h2.3v81.1c0,2.8,0,5,0.1,6.6c0.1,1.6,0.2,2.8,0.5,3.6c0.3,0.8,0.6,1.4,1.1,1.8
		c0.4,0.4,1,0.7,1.8,1.1c1.4,0.8,4.3,1.2,8.7,1.2V99H7.8v-2.6c2.3,0,4.2-0.1,5.6-0.3c1.4-0.2,2.5-0.5,3.3-0.8
		c0.8-0.3,1.4-0.7,1.7-1.2c0.4-0.5,0.7-1,0.9-1.6C19.8,91.4,20,88,20,82.1V30.2c0-4.1-0.1-7.3-0.3-9.7c-0.2-2.4-0.5-4.1-0.9-5.2
		c-0.4-1.1-1-1.9-1.7-2.2c-0.7-0.3-1.6-0.5-2.7-0.5c-2,0-4.4,0.6-7.3,1.9L6.1,12.4z"/>
</g>
</svg>
