<?xml version="1.0" encoding="utf-8"?>
<!-- Generator: Adobe Illustrator 18.1.1, SVG Export Plug-In . SVG Version: 6.00 Build 0)  -->
<svg version="1.1" id="Слой_1" xmlns="http://www.w3.org/2000/svg" xmlns:xlink="http://www.w3.org/1999/xlink" x="0px" y="0px"
	 viewBox="0 0 50 50" enable-background="new 0 0 50 50" xml:space="preserve">
<circle fill="#386EAC" stroke="#FFFFFF" stroke-width="2" stroke-miterlimit="10" cx="25" cy="25" r="20.7"/>
<g>
	<path fill="#FFFFFF" d="M31.1,12.8l-3.2,0c-3.5,0-5.8,2.3-5.8,6v2.8h-3.2c-0.3,0-0.5,0.2-0.5,0.5v4c0,0.3,0.2,0.5,0.5,0.5h3.2v10.1
		c0,0.3,0.2,0.5,0.5,0.5h4.1c0.3,0,0.5-0.2,0.5-0.5V26.6h3.7c0.3,0,0.5-0.2,0.5-0.5l0-4c0-0.1-0.1-0.3-0.1-0.4s-0.2-0.1-0.4-0.1
		h-3.7v-2.3c0-1.1,0.3-1.7,1.7-1.7l2.1,0c0.3,0,0.5-0.2,0.5-0.5v-3.7C31.6,13.1,31.4,12.8,31.1,12.8z"/>
</g>
</svg>
