<?xml version="1.0" encoding="utf-8"?>
<!-- Generator: Adobe Illustrator 18.1.1, SVG Export Plug-In . SVG Version: 6.00 Build 0)  -->
<svg version="1.1" id="Слой_1" xmlns="http://www.w3.org/2000/svg" xmlns:xlink="http://www.w3.org/1999/xlink" x="0px" y="0px"
	 viewBox="0 0 50 50" enable-background="new 0 0 50 50" xml:space="preserve">
<circle fill="#BB4A3F" stroke="#FFFFFF" stroke-width="2" stroke-miterlimit="10" cx="25" cy="25" r="20.7"/>
<g>
	<path fill="#FFFFFF" d="M16.7,13.8h16.6c1.6,0,2.9,1.2,2.9,2.9v16.6c0,1.7-1.3,2.9-2.9,2.9H16.7c-1.6,0-2.9-1.2-2.9-2.9V16.7
		C13.8,15,15.1,13.8,16.7,13.8L16.7,13.8z M30.1,16.3c-0.6,0-1,0.5-1,1v2.4c0,0.6,0.5,1,1,1h2.5c0.6,0,1-0.5,1-1v-2.4
		c0-0.6-0.5-1-1-1H30.1L30.1,16.3z M33.7,23.3h-2c0.2,0.6,0.3,1.3,0.3,1.9c0,3.7-3.1,6.7-7,6.7c-3.8,0-7-3-7-6.7
		c0-0.7,0.1-1.3,0.3-1.9h-2.1v9.5c0,0.5,0.4,0.9,0.9,0.9h15.6c0.5,0,0.9-0.4,0.9-0.9L33.7,23.3L33.7,23.3z M25,20.6
		c-2.5,0-4.5,2-4.5,4.4s2,4.4,4.5,4.4c2.5,0,4.5-2,4.5-4.4S27.5,20.6,25,20.6z"/>
</g>
</svg>
