<?xml version="1.0" encoding="utf-8"?>
<!-- Generator: Adobe Illustrator 18.1.1, SVG Export Plug-In . SVG Version: 6.00 Build 0)  -->
<svg version="1.1" id="Слой_1" xmlns="http://www.w3.org/2000/svg" xmlns:xlink="http://www.w3.org/1999/xlink" x="0px" y="0px"
	 viewBox="0 0 50 50" enable-background="new 0 0 50 50" xml:space="preserve">
<circle fill="#4D76A4" stroke="#FFFFFF" stroke-width="2" stroke-miterlimit="10" cx="25" cy="25" r="20.7"/>
<g>
	<g>
		<path fill="#FFFFFF" d="M36,23.7c0.4-0.5,0.7-0.9,1-1.3c1.7-2.3,2.4-3.7,2.2-4.4l-0.1-0.1c-0.1-0.1-0.2-0.2-0.5-0.2
			c-0.2-0.1-0.6-0.1-0.9,0l-4.3,0c-0.1,0-0.2,0-0.3,0c-0.1,0-0.2,0-0.2,0c0,0-0.1,0-0.1,0l-0.1,0c0,0-0.1,0.1-0.2,0.2
			c-0.1,0.1-0.1,0.2-0.1,0.3c-0.5,1.2-1,2.3-1.6,3.3c-0.4,0.6-0.7,1.1-1,1.6c-0.3,0.4-0.6,0.8-0.8,1c-0.2,0.2-0.4,0.4-0.6,0.5
			c-0.2,0.1-0.3,0.2-0.4,0.2c-0.1,0-0.2,0-0.3-0.1c-0.1-0.1-0.2-0.2-0.3-0.4c-0.1-0.2-0.1-0.3-0.2-0.6c0-0.2,0-0.4-0.1-0.6
			c0-0.2,0-0.4,0-0.7c0-0.3,0-0.5,0-0.6c0-0.4,0-0.8,0-1.2c0-0.4,0-0.8,0-1c0-0.3,0-0.5,0-0.8c0-0.3,0-0.5-0.1-0.7
			c0-0.2-0.1-0.3-0.2-0.5c-0.1-0.2-0.2-0.3-0.3-0.4c-0.1-0.1-0.3-0.2-0.5-0.2c-0.5-0.1-1.2-0.2-2-0.2c-1.8,0-3,0.1-3.5,0.4
			c-0.2,0.1-0.4,0.3-0.6,0.4c-0.2,0.2-0.2,0.3-0.1,0.4c0.6,0.1,1,0.3,1.3,0.6l0.1,0.2c0.1,0.1,0.1,0.4,0.2,0.7
			c0.1,0.3,0.1,0.7,0.1,1.1c0,0.7,0,1.3,0,1.8c0,0.5-0.1,0.9-0.1,1.2c0,0.3-0.1,0.5-0.2,0.7c-0.1,0.2-0.1,0.3-0.2,0.3
			c0,0-0.1,0.1-0.1,0.1c-0.1,0-0.3,0.1-0.4,0.1c-0.1,0-0.3-0.1-0.5-0.2c-0.2-0.1-0.4-0.3-0.6-0.6c-0.2-0.2-0.5-0.6-0.7-1
			c-0.3-0.4-0.5-0.9-0.8-1.5l-0.2-0.4c-0.1-0.3-0.4-0.7-0.6-1.2c-0.3-0.5-0.5-1-0.7-1.5c-0.1-0.2-0.2-0.4-0.4-0.5l-0.1,0
			c0,0-0.1-0.1-0.2-0.1c-0.1,0-0.2-0.1-0.3-0.1l-4.1,0c-0.4,0-0.7,0.1-0.8,0.3L10.8,18c0,0,0,0.1,0,0.2c0,0.1,0,0.2,0.1,0.4
			c0.6,1.4,1.2,2.7,1.9,4c0.7,1.3,1.3,2.3,1.8,3.1c0.5,0.8,1,1.5,1.6,2.2c0.5,0.7,0.9,1.1,1.1,1.3c0.2,0.2,0.3,0.3,0.4,0.4l0.4,0.4
			c0.2,0.2,0.6,0.5,1,0.9c0.5,0.3,1,0.7,1.5,1c0.6,0.3,1.2,0.6,1.9,0.8c0.7,0.2,1.5,0.3,2.2,0.2h1.7c0.3,0,0.6-0.1,0.8-0.3l0.1-0.1
			c0-0.1,0.1-0.2,0.1-0.3c0-0.1,0.1-0.3,0.1-0.4c0-0.4,0-0.8,0.1-1.1c0.1-0.3,0.2-0.6,0.3-0.8c0.1-0.2,0.2-0.3,0.3-0.4
			c0.1-0.1,0.2-0.2,0.3-0.2c0,0,0.1,0,0.1-0.1c0.2-0.1,0.5,0,0.8,0.2c0.3,0.2,0.6,0.5,0.9,0.9c0.3,0.3,0.6,0.7,1,1.1
			c0.4,0.4,0.7,0.7,1,0.9l0.3,0.2c0.2,0.1,0.5,0.2,0.8,0.3c0.3,0.1,0.6,0.1,0.8,0.1l3.8-0.1c0.4,0,0.7-0.1,0.9-0.2
			c0.2-0.1,0.3-0.3,0.4-0.4c0-0.1,0-0.3,0-0.5c0-0.2-0.1-0.3-0.1-0.4c0-0.1-0.1-0.1-0.1-0.2c-0.5-0.9-1.4-2-2.8-3.3l0,0l0,0l0,0h0
			c-0.6-0.6-1-1-1.2-1.2c-0.3-0.4-0.4-0.8-0.2-1.2C34.8,25.3,35.2,24.7,36,23.7z"/>
	</g>
</g>
</svg>
