<?xml version="1.0" encoding="utf-8"?>
<!-- Generator: Adobe Illustrator 18.1.1, SVG Export Plug-In . SVG Version: 6.00 Build 0)  -->
<svg version="1.1" id="Capa_1" xmlns="http://www.w3.org/2000/svg" xmlns:xlink="http://www.w3.org/1999/xlink" x="0px" y="0px"
	 viewBox="-192 193.8 44.2 44.2" enable-background="new -192 193.8 44.2 44.2" xml:space="preserve">
<g>
	<g>
		<path fill="#FEFFE2" d="M-192,215.9c0-12.2,9.9-22.1,22.1-22.1s22.1,9.9,22.1,22.1c0,12.2-9.9,22.1-22.1,22.1
			C-182.1,238-192,228.1-192,215.9z M-149.3,215.9c0-11.4-9.2-20.6-20.6-20.6c-11.4,0-20.6,9.3-20.6,20.6c0,11.4,9.3,20.6,20.6,20.6
			C-158.5,236.5-149.3,227.3-149.3,215.9z"/>
		<path fill="#FEFFE2" d="M-177.6,213.1c0-0.2,0.1-0.4,0.2-0.5c0.3-0.3,0.8-0.3,1.1,0l6.8,6.8l6.8-6.8c0.3-0.3,0.8-0.3,1.1,0
			c0.3,0.3,0.3,0.8,0,1.1l-7.3,7.3c-0.3,0.3-0.8,0.3-1.1,0l-7.3-7.3C-177.6,213.5-177.6,213.3-177.6,213.1z"/>
	</g>
</g>
</svg>
