<?xml version="1.0" encoding="utf-8"?>
<!-- Generator: Adobe Illustrator 18.1.1, SVG Export Plug-In . SVG Version: 6.00 Build 0)  -->
<svg version="1.1" id="Capa_1" xmlns="http://www.w3.org/2000/svg" xmlns:xlink="http://www.w3.org/1999/xlink" x="0px" y="0px"
	 viewBox="0 0 430 430" enable-background="new 0 0 430 430" xml:space="preserve">
<path fill="#FEFFE2" d="M381,104.2l-110.7-91C261.2,5.7,245.3,0,233.4,0H59.4c-15,0-27.3,12.2-27.3,27.3c0,0,0,293.7,0,374.6
	c0,28.1,26.6,28.1,27.2,28.1c67.6,0,311.4,0,311.4,0c15.1,0,27.3-12.2,27.3-27.3V140.1C397.9,127.6,390.6,112.2,381,104.2z
	 M262.7,41.2c0-6.7,5.5-1.6,5.5-1.6l87.7,74.9c0,0,5.6,5.5-4,5.5c-20.5,0-82.2,0-82.2,0c-3.9,0-7.1-3.2-7.1-7.1
	C262.7,113.1,262.7,59.2,262.7,41.2z M370.6,409.8c0,0-250.4,0-313.3,0c-1.1,0-5.1-0.3-5.1-5.8c0-76.1,0-376.6,0-376.6
	c0-3.8,3.2-7.1,7.1-7.1h174.1c2.9,0,9.1,1.6,9.1,10v82.9c0,15.1,12.2,27.3,27.3,27.3h102.8c1.9,0,5.1,1.3,5.1,5.8
	c0,0.1,0,256.5,0,256.5C377.7,406.6,374.5,409.8,370.6,409.8z"/>
<rect x="88" y="56" fill="#FEFFE2" width="118" height="166"/>
<rect x="88" y="263" fill="#FEFFE2" width="261" height="21"/>
<rect x="88" y="324" fill="#FEFFE2" width="261" height="21"/>
<rect x="253" y="201" fill="#FEFFE2" width="96" height="21"/>
</svg>
